<svg xmlns="http://www.w3.org/2000/svg" xmlns:xlink="http://www.w3.org/1999/xlink" xmlns:lucid="lucid" width="1175" height="3358"><g transform="translate(0 1550)" lucid:page-tab-id="0_0"><path d="M467.66-1222.5c17.67 0 32 17.9 32 40s-14.33 40-32 40h-96c-17.67 0-32-17.9-32-40s14.33-40 32-40z" stroke="#000" fill="#fff"/><use xlink:href="#a" transform="matrix(1,0,0,1,344.6589875676723,-1217.5) translate(51.2451171875 41.31944444444444)"/><path d="M194.5-1054.58a9.06 9.06 0 0 1 7.93-9l144.13-17.93a7.07 7.07 0 0 1 7.93 7v104a8 8 0 0 1-8 8h-144a8 8 0 0 1-8-8z" stroke="#000" stroke-width="2" fill="#fff"/><use xlink:href="#b" transform="matrix(1,0,0,1,199.49393612178778,-1057.5) translate(1.2934027777777715 51.63194444444444)"/><use xlink:href="#c" transform="matrix(1,0,0,1,199.49393612178778,-1057.5) translate(39.26323784722222 51.63194444444444)"/><use xlink:href="#d" transform="matrix(1,0,0,1,199.49393612178778,-1057.5) translate(52.965494791666664 51.63194444444444)"/><use xlink:href="#e" transform="matrix(1,0,0,1,199.49393612178778,-1057.5) translate(93.69249131944444 51.63194444444444)"/><use xlink:href="#f" transform="matrix(1,0,0,1,199.49393612178778,-1057.5) translate(120.76280381944444 51.63194444444444)"/><path d="M419.66-1141.5v21.64a12 12 0 0 1-12 12h-119.8a12 12 0 0 0-12 12v5.76" stroke="#333" fill="none"/><path d="M420.13-1141.5h-.95v-.5h.95z" stroke="#333" stroke-width=".05" fill="#333"/><path d="M275.87-1075.34l-4.64-14.26h9.27z" stroke="#333" fill="#333"/><path d="M312.05-1436.5a6 6 0 0 1 6-6h228a6 6 0 0 1 6 6v48a6 6 0 0 1-6 6h-228a6 6 0 0 1-6-6z" fill="none"/><use xlink:href="#g" transform="matrix(1,0,0,1,312.05245247066955,-1442.5) translate(24.287594401041673 27.95639431423611)"/><use xlink:href="#h" transform="matrix(1,0,0,1,312.05245247066955,-1442.5) translate(85.04558919270835 27.95639431423611)"/><use xlink:href="#i" transform="matrix(1,0,0,1,312.05245247066955,-1442.5) translate(109.76324544270835 27.95639431423611)"/><use xlink:href="#j" transform="matrix(1,0,0,1,312.05245247066955,-1442.5) translate(120 49.533512369791666)"/><path d="M204.5-1376.5a6 6 0 0 1 6-6h448a6 6 0 0 1 6 6v48a6 6 0 0 1-6 6h-448a6 6 0 0 1-6-6z" fill="none"/><use xlink:href="#k" transform="matrix(1,0,0,1,204.49393612178778,-1382.5) translate(189.01095920138889 26.24782986111111)"/><use xlink:href="#l" transform="matrix(1,0,0,1,204.49393612178778,-1382.5) translate(264.66200086805554 26.24782986111111)"/><use xlink:href="#m" transform="matrix(1,0,0,1,204.49393612178778,-1382.5) translate(230 45.06944444444444)"/><path d="M274.5-960.5v44.45a.05.05 0 0 1-.06.05.05.05 0 0 0-.04.05V-889" stroke="#5e5e5e" stroke-width="2" fill="none"/><path d="M275.47-960.47h-1.95v-1.03h1.95z" stroke="#5e5e5e" stroke-width=".05" fill="#5e5e5e"/><path d="M274.4-873.74L269.76-888h9.27z" stroke="#5e5e5e" stroke-width="2" fill="#5e5e5e"/><path d="M194.4-854.58a9.06 9.06 0 0 1 7.93-9l144.13-17.93a7.07 7.07 0 0 1 7.94 7v104a8 8 0 0 1-8 8h-144a8 8 0 0 1-8-8z" stroke="#000" stroke-width="2" fill="#fff"/><use xlink:href="#b" transform="matrix(1,0,0,1,199.3956317033119,-857.5) translate(8.239474826388886 40.38194444444444)"/><use xlink:href="#n" transform="matrix(1,0,0,1,199.3956317033119,-857.5) translate(46.209309895833336 40.38194444444444)"/><use xlink:href="#o" transform="matrix(1,0,0,1,199.3956317033119,-857.5) translate(59.319118923611114 40.38194444444444)"/><use xlink:href="#p" transform="matrix(1,0,0,1,199.3956317033119,-857.5) translate(122.90852864583334 40.38194444444444)"/><use xlink:href="#q" transform="matrix(1,0,0,1,199.3956317033119,-857.5) translate(51.56792534722222 59.203559027777786)"/><path d="M417.95-996.5a6 6 0 0 1 6-6h148a6 6 0 0 1 6 6v108a6 6 0 0 1-6 6h-148a6 6 0 0 1-6-6z" stroke="#3a414a" stroke-width="2" fill="#fff"/><use xlink:href="#r" transform="matrix(1,0,0,1,429.9485137241272,-990.5) translate(32.01258680555556 45.06944444444444)"/><use xlink:href="#s" transform="matrix(1,0,0,1,429.9485137241272,-990.5) translate(74.015625 45.06944444444444)"/><use xlink:href="#t" transform="matrix(1,0,0,1,429.9485137241272,-990.5) translate(98.38194444444444 45.06944444444444)"/><use xlink:href="#u" transform="matrix(1,0,0,1,429.9485137241272,-990.5) translate(15.511393229166671 63.891059027777786)"/><use xlink:href="#v" transform="matrix(1,0,0,1,429.9485137241272,-990.5) translate(81.57693142361111 63.891059027777786)"/><path d="M356.4-822.27h23.77a6 6 0 0 0 6-6v-108a6 6 0 0 1 6-6h6.28" stroke="#5e5e5e" stroke-width="2" fill="none"/><path d="M356.42-821.3h-1.02v-1.94h1.02z" stroke="#5e5e5e" stroke-width=".05" fill="#5e5e5e"/><path d="M413.7-942.27l-14.25 4.63v-9.27z" stroke="#5e5e5e" stroke-width="2" fill="#5e5e5e"/><path d="M634.5-857.58a6.8 6.8 0 0 1 5.95-6.74l148.1-18.44a5.3 5.3 0 0 1 5.94 5.26v108a6 6 0 0 1-6 6h-148a6 6 0 0 1-6-6z" stroke="#3a414a" stroke-width="2" fill="#fff"/><use xlink:href="#w" transform="matrix(1,0,0,1,639.4939361217878,-858.4999999999342) translate(26.8825954861111 40.38194444444444)"/><use xlink:href="#x" transform="matrix(1,0,0,1,639.4939361217878,-858.4999999999342) translate(104.26540798611111 40.38194444444444)"/><use xlink:href="#y" transform="matrix(1,0,0,1,639.4939361217878,-858.4999999999342) translate(10.244683159722229 59.203559027777786)"/><use xlink:href="#z" transform="matrix(1,0,0,1,639.4939361217878,-858.4999999999342) translate(82.77398003472223 59.203559027777786)"/><path d="M579.95-942.5h20.27a6 6 0 0 1 6 6v116a6 6 0 0 0 6 6H615" stroke="#5e5e5e" stroke-width="2" fill="none"/><path d="M579.97-941.52h-1.02v-1.96h1.02z" stroke="#5e5e5e" stroke-width=".05" fill="#5e5e5e"/><path d="M630.26-814.5L616-809.87v-9.26z" stroke="#5e5e5e" stroke-width="2" fill="#5e5e5e"/><path d="M215.83-596.5a6 6 0 0 1 6-6h420.44a6 6 0 0 1 6 6v48a6 6 0 0 1-6 6H221.83a6 6 0 0 1-6-6z" fill="none"/><use xlink:href="#k" transform="matrix(1,0,0,1,215.8317106451102,-602.5) translate(173.93109809027777 26.24782986111111)"/><use xlink:href="#A" transform="matrix(1,0,0,1,215.8317106451102,-602.5) translate(249.58213975694446 26.24782986111111)"/><use xlink:href="#m" transform="matrix(1,0,0,1,215.8317106451102,-602.5) translate(216.5 45.06944444444444)"/><path d="M460.62-502.5c22.1 0 40 17.9 40 40s-17.9 40-40 40h-80c-22.1 0-40-17.9-40-40s17.9-40 40-40z" stroke="#3a414a" stroke-width="2" fill="#fff"/><use xlink:href="#B" transform="matrix(1,0,0,1,345.616373528871,-497.5) translate(47.05946180555556 43.40277777777778)"/><path d="M962.5-1022.5c17.67 0 32 17.9 32 40s-14.33 40-32 40h-96c-17.68 0-32-17.9-32-40s14.32-40 32-40z" stroke="#000" fill="#fff"/><use xlink:href="#C" transform="matrix(1,0,0,1,839.4939361217878,-1017.5) translate(61.2939453125 41.31944444444444)"/><path d="M796.5-823.33h12.68a6 6 0 0 0 6-6v-160.82a1.18 1.18 0 0 1 1.18-1.18" stroke="#5e5e5e" stroke-width="2" fill="none"/><path d="M796.52-822.36h-1.03v-1.95h1.02z" stroke="#5e5e5e" stroke-width=".05" fill="#5e5e5e"/><path d="M831.63-991.33l-14.27 4.63v-9.27z" stroke="#5e5e5e" stroke-width="2" fill="#5e5e5e"/><path d="M274.5-296.58a6.8 6.8 0 0 1 5.95-6.74l148.1-18.44a5.3 5.3 0 0 1 5.94 5.26v108a6 6 0 0 1-6 6h-148a6 6 0 0 1-6-6z" stroke="#3a414a" stroke-width="2" fill="#fff"/><use xlink:href="#D" transform="matrix(1,0,0,1,279.4939361217878,-297.5) translate(13.229709201388886 40.38194444444444)"/><use xlink:href="#E" transform="matrix(1,0,0,1,279.4939361217878,-297.5) translate(51.199544270833336 40.38194444444444)"/><use xlink:href="#F" transform="matrix(1,0,0,1,279.4939361217878,-297.5) translate(64.90180121527777 40.38194444444444)"/><use xlink:href="#x" transform="matrix(1,0,0,1,279.4939361217878,-297.5) translate(117.91829427083334 40.38194444444444)"/><use xlink:href="#G" transform="matrix(1,0,0,1,279.4939361217878,-297.5) translate(29.400499131944443 59.203559027777786)"/><path d="M420.62-420.5v46.98a6 6 0 0 1-6 6H360.5a6 6 0 0 0-6 6v29.47" stroke="#5e5e5e" stroke-width="2" fill="none"/><path d="M421.6-420.47h-1.96v-1.03h1.95z" stroke="#5e5e5e" stroke-width=".05" fill="#5e5e5e"/><path d="M354.5-316.78l-4.64-14.27h9.27z" stroke="#5e5e5e" stroke-width="2" fill="#5e5e5e"/><path d="M531.04-316.5a6 6 0 0 1 6-6h148a6 6 0 0 1 6 6v108a6 6 0 0 1-6 6h-148a6 6 0 0 1-6-6z" stroke="#3a414a" stroke-width="2" fill="#fff"/><use xlink:href="#H" transform="matrix(1,0,0,1,543.0393585194483,-310.5) translate(18.101453993055543 54.06944444444444)"/><use xlink:href="#I" transform="matrix(1,0,0,1,543.0393585194483,-310.5) translate(72.8876953125 54.06944444444444)"/><use xlink:href="#J" transform="matrix(1,0,0,1,543.0393585194483,-310.5) translate(85.0556640625 54.06944444444444)"/><path d="M436.5-262.33h75.04" stroke="#5e5e5e" stroke-width="2" fill="none"/><path d="M436.52-261.36h-1.03v-1.95h1.02z" stroke="#5e5e5e" stroke-width=".05" fill="#5e5e5e"/><path d="M526.8-262.33l-14.26 4.63v-9.27z" stroke="#5e5e5e" stroke-width="2" fill="#5e5e5e"/><path d="M611.04-200.5v71.5" stroke="#5e5e5e" stroke-width="2" fill="none"/><path d="M612-200.47h-1.94v-1.03H612z" stroke="#5e5e5e" stroke-width=".05" fill="#5e5e5e"/><path d="M611.04-113.74L606.4-128h9.27z" stroke="#5e5e5e" stroke-width="2" fill="#5e5e5e"/><path d="M531.04-96.58a6.8 6.8 0 0 1 5.95-6.74l148.1-18.44a5.3 5.3 0 0 1 5.94 5.26v108a6 6 0 0 1-6 6h-148a6 6 0 0 1-6-6z" stroke="#3a414a" stroke-width="2" fill="#fff"/><use xlink:href="#w" transform="matrix(1,0,0,1,543.0393585194483,-90.5) translate(19.8825954861111 34.06944444444444)"/><use xlink:href="#x" transform="matrix(1,0,0,1,543.0393585194483,-90.5) translate(97.26540798611111 34.06944444444444)"/><use xlink:href="#y" transform="matrix(1,0,0,1,543.0393585194483,-90.5) translate(3.2446831597222285 52.891059027777786)"/><use xlink:href="#z" transform="matrix(1,0,0,1,543.0393585194483,-90.5) translate(75.77398003472223 52.891059027777786)"/><path d="M529.04-62.5H480.5a6 6 0 0 0-6 6v48a6 6 0 0 1-6 6h-31.05" stroke="#5e5e5e" stroke-width="2" fill="none"/><path d="M530.04-61.52H529v-1.95h1.04z" stroke="#5e5e5e" stroke-width=".05" fill="#5e5e5e"/><path d="M422.2-2.5l14.25-4.63v9.27z" stroke="#5e5e5e" stroke-width="2" fill="#5e5e5e"/><path d="M377.95-42.5c22.1 0 40 17.9 40 40s-17.9 40-40 40h-80c-22.1 0-40-17.9-40-40s17.9-40 40-40z" stroke="#3a414a" stroke-width="2" fill="#fff"/><use xlink:href="#K" transform="matrix(1,0,0,1,269.9485137241272,-30.5) translate(54.2939453125 32.56944444444444)"/><path d="M208.27 223.5a6 6 0 0 1 6-6H654.7a6 6 0 0 1 6 6v48a6 6 0 0 1-6 6H214.3a6 6 0 0 1-6-6z" fill="none"/><use xlink:href="#k" transform="matrix(1,0,0,1,208.27319429622867,217.5) translate(183.87033420138889 26.24782986111111)"/><use xlink:href="#L" transform="matrix(1,0,0,1,208.27319429622867,217.5) translate(259.52137586805554 26.24782986111111)"/><use xlink:href="#m" transform="matrix(1,0,0,1,208.27319429622867,217.5) translate(226.5 45.06944444444444)"/><path d="M474.5 337.5c22.08 0 40 17.9 40 40s-17.92 40-40 40h-80c-22.1 0-40-17.9-40-40s17.9-40 40-40z" stroke="#3a414a" stroke-width="2" fill="#fff"/><use xlink:href="#B" transform="matrix(1,0,0,1,359.4939361217878,342.5) translate(47.05946180555556 43.40277777777778)"/><path d="M352.5 377.5h-253a6 6 0 0 0-6 6v108a6 6 0 0 0 6 6H115" stroke="#5e5e5e" stroke-width="2" fill="none"/><path d="M353.5 377.5l.03.98h-1.06v-1.96h1.08z" stroke="#5e5e5e" stroke-width=".05" fill="#5e5e5e"/><path d="M130.26 497.5L116 502.13v-9.26z" stroke="#5e5e5e" stroke-width="2" fill="#5e5e5e"/><path d="M128.27 663.42a6.8 6.8 0 0 1 5.96-6.74l148.1-18.44a5.3 5.3 0 0 1 5.94 5.26v108a6 6 0 0 1-6 6h-148a6 6 0 0 1-6-6z" stroke="#3a414a" stroke-width="2" fill="#fff"/><use xlink:href="#M" transform="matrix(1,0,0,1,133.27319429622867,662.5) translate(15.359157986111114 38.40277777777778)"/><use xlink:href="#N" transform="matrix(1,0,0,1,133.27319429622867,662.5) translate(69.60177951388889 38.40277777777778)"/><use xlink:href="#O" transform="matrix(1,0,0,1,133.27319429622867,662.5) translate(88.330078125 38.40277777777778)"/><use xlink:href="#P" transform="matrix(1,0,0,1,133.27319429622867,662.5) translate(33.870442708333336 65.29079861111111)"/><use xlink:href="#Q" transform="matrix(1,0,0,1,133.27319429622867,662.5) translate(66.20551215277777 65.29079861111111)"/><path d="M208.27 759.5V871" stroke="#5e5e5e" stroke-width="2" fill="none"/><path d="M209.25 759.53h-1.95v-1.03h1.95z" stroke="#5e5e5e" stroke-width=".05" fill="#5e5e5e"/><path d="M208.27 886.26L203.64 872h9.27z" stroke="#5e5e5e" stroke-width="2" fill="#5e5e5e"/><path d="M128.27 903.42a6.8 6.8 0 0 1 5.96-6.74l148.1-18.44a5.3 5.3 0 0 1 5.94 5.26v108a6 6 0 0 1-6 6h-148a6 6 0 0 1-6-6z" stroke="#3a414a" stroke-width="2" fill="#fff"/><use xlink:href="#M" transform="matrix(1,0,0,1,133.27319429622867,902.5) translate(15.359157986111114 38.40277777777778)"/><use xlink:href="#N" transform="matrix(1,0,0,1,133.27319429622867,902.5) translate(69.60177951388889 38.40277777777778)"/><use xlink:href="#O" transform="matrix(1,0,0,1,133.27319429622867,902.5) translate(88.330078125 38.40277777777778)"/><use xlink:href="#P" transform="matrix(1,0,0,1,133.27319429622867,902.5) translate(31.613498263888893 65.29079861111111)"/><use xlink:href="#R" transform="matrix(1,0,0,1,133.27319429622867,902.5) translate(63.948567708333336 65.29079861111111)"/><path d="M208.27 999.5v91.5" stroke="#5e5e5e" stroke-width="2" fill="none"/><path d="M209.25 999.53h-1.95v-1.03h1.95z" stroke="#5e5e5e" stroke-width=".05" fill="#5e5e5e"/><path d="M208.27 1106.26l-4.63-14.26h9.27z" stroke="#5e5e5e" stroke-width="2" fill="#5e5e5e"/><path d="M128.27 1123.42a6.8 6.8 0 0 1 5.96-6.74l148.1-18.44a5.3 5.3 0 0 1 5.94 5.26v108a6 6 0 0 1-6 6h-148a6 6 0 0 1-6-6z" stroke="#3a414a" stroke-width="2" fill="#fff"/><use xlink:href="#M" transform="matrix(1,0,0,1,133.27319429622867,1122.5) translate(15.359157986111114 38.40277777777778)"/><use xlink:href="#N" transform="matrix(1,0,0,1,133.27319429622867,1122.5) translate(69.60177951388889 38.40277777777778)"/><use xlink:href="#O" transform="matrix(1,0,0,1,133.27319429622867,1122.5) translate(88.330078125 38.40277777777778)"/><use xlink:href="#P" transform="matrix(1,0,0,1,133.27319429622867,1122.5) translate(31.526692708333336 65.29079861111111)"/><use xlink:href="#S" transform="matrix(1,0,0,1,133.27319429622867,1122.5) translate(63.86176215277778 65.29079861111111)"/><path d="M417.95 1127.72a6 6 0 0 1 6-6h148a6 6 0 0 1 6 6v119.56a6 6 0 0 1-6 6h-148a6 6 0 0 1-6-6z" stroke="#3a414a" stroke-width="2" fill="#fff"/><use xlink:href="#T" transform="matrix(1,0,0,1,429.9485137241272,1133.7239583333335) translate(5.472873263888893 24.90277777777778)"/><use xlink:href="#U" transform="matrix(1,0,0,1,429.9485137241272,1133.7239583333335) translate(66.49717881944444 24.90277777777778)"/><use xlink:href="#V" transform="matrix(1,0,0,1,429.9485137241272,1133.7239583333335) translate(87.44986979166666 24.90277777777778)"/><use xlink:href="#U" transform="matrix(1,0,0,1,429.9485137241272,1133.7239583333335) translate(6.037109375 51.790798611111114)"/><use xlink:href="#W" transform="matrix(1,0,0,1,429.9485137241272,1133.7239583333335) translate(26.98980034722222 51.790798611111114)"/><use xlink:href="#X" transform="matrix(1,0,0,1,429.9485137241272,1133.7239583333335) translate(76.49066840277777 51.790798611111114)"/><use xlink:href="#Y" transform="matrix(1,0,0,1,429.9485137241272,1133.7239583333335) translate(90.74848090277777 51.790798611111114)"/><use xlink:href="#Z" transform="matrix(1,0,0,1,429.9485137241272,1133.7239583333335) translate(110.724609375 51.790798611111114)"/><use xlink:href="#aa" transform="matrix(1,0,0,1,429.9485137241272,1133.7239583333335) translate(1.5883246527777715 78.67881944444446)"/><use xlink:href="#U" transform="matrix(1,0,0,1,429.9485137241272,1133.7239583333335) translate(57.035373263888886 78.67881944444446)"/><use xlink:href="#ab" transform="matrix(1,0,0,1,429.9485137241272,1133.7239583333335) translate(77.98806423611111 78.67881944444446)"/><use xlink:href="#ac" transform="matrix(1,0,0,1,429.9485137241272,1133.7239583333335) translate(123.27886284722223 78.67881944444446)"/><use xlink:href="#ad" transform="matrix(1,0,0,1,429.9485137241272,1133.7239583333335) translate(12.070095486111114 105.56684027777777)"/><use xlink:href="#ae" transform="matrix(1,0,0,1,429.9485137241272,1133.7239583333335) translate(64.79361979166667 105.56684027777777)"/><use xlink:href="#af" transform="matrix(1,0,0,1,429.9485137241272,1133.7239583333335) translate(85.74631076388889 105.56684027777777)"/><path d="M128.27 1343.42a6.8 6.8 0 0 1 5.96-6.74l148.1-18.44a5.3 5.3 0 0 1 5.94 5.26v108a6 6 0 0 1-6 6h-148a6 6 0 0 1-6-6z" stroke="#3a414a" stroke-width="2" fill="#fff"/><g><use xlink:href="#M" transform="matrix(1,0,0,1,133.27319429622867,1342.5) translate(17.366536458333336 52.46527777777778)"/><use xlink:href="#N" transform="matrix(1,0,0,1,133.27319429622867,1342.5) translate(71.60915798611111 52.46527777777778)"/><use xlink:href="#ag" transform="matrix(1,0,0,1,133.27319429622867,1342.5) translate(90.33745659722223 52.46527777777778)"/></g><path d="M290.27 1377.67h56.84a6 6 0 0 0 6-6v-178a6 6 0 0 1 6-6h39.35" stroke="#5e5e5e" stroke-width="2" fill="none"/><path d="M290.3 1378.64h-1.03v-1.95h1.03z" stroke="#5e5e5e" stroke-width=".05" fill="#5e5e5e"/><path d="M413.7 1187.68l-14.25 4.64v-9.27z" stroke="#5e5e5e" stroke-width="2" fill="#5e5e5e"/><path d="M691.04 463.42a6.8 6.8 0 0 1 5.95-6.74l148.1-18.44a5.3 5.3 0 0 1 5.94 5.26v108a6 6 0 0 1-6 6h-148a6 6 0 0 1-6-6z" stroke="#3a414a" stroke-width="2" fill="#fff"/><g><use xlink:href="#M" transform="matrix(1,0,0,1,696.0393585194483,462.5) translate(15.359157986111114 38.40277777777778)"/><use xlink:href="#N" transform="matrix(1,0,0,1,696.0393585194483,462.5) translate(69.60177951388889 38.40277777777778)"/><use xlink:href="#O" transform="matrix(1,0,0,1,696.0393585194483,462.5) translate(88.330078125 38.40277777777778)"/><use xlink:href="#P" transform="matrix(1,0,0,1,696.0393585194483,462.5) translate(33.870442708333336 65.29079861111111)"/><use xlink:href="#Q" transform="matrix(1,0,0,1,696.0393585194483,462.5) translate(66.20551215277777 65.29079861111111)"/></g><path d="M691.04 663.42a6.8 6.8 0 0 1 5.95-6.74l148.1-18.44a5.3 5.3 0 0 1 5.94 5.26v108a6 6 0 0 1-6 6h-148a6 6 0 0 1-6-6z" stroke="#3a414a" stroke-width="2" fill="#fff"/><g><use xlink:href="#M" transform="matrix(1,0,0,1,696.0393585194483,662.5) translate(15.359157986111114 38.40277777777778)"/><use xlink:href="#N" transform="matrix(1,0,0,1,696.0393585194483,662.5) translate(69.60177951388889 38.40277777777778)"/><use xlink:href="#O" transform="matrix(1,0,0,1,696.0393585194483,662.5) translate(88.330078125 38.40277777777778)"/><use xlink:href="#P" transform="matrix(1,0,0,1,696.0393585194483,662.5) translate(31.613498263888893 65.29079861111111)"/><use xlink:href="#R" transform="matrix(1,0,0,1,696.0393585194483,662.5) translate(63.948567708333336 65.29079861111111)"/></g><path d="M691.04 923.42a6.8 6.8 0 0 1 5.95-6.74l148.1-18.44a5.3 5.3 0 0 1 5.94 5.26v108a6 6 0 0 1-6 6h-148a6 6 0 0 1-6-6z" stroke="#3a414a" stroke-width="2" fill="#fff"/><g><use xlink:href="#M" transform="matrix(1,0,0,1,696.0393585194483,922.5) translate(15.359157986111114 38.40277777777778)"/><use xlink:href="#N" transform="matrix(1,0,0,1,696.0393585194483,922.5) translate(69.60177951388889 38.40277777777778)"/><use xlink:href="#O" transform="matrix(1,0,0,1,696.0393585194483,922.5) translate(88.330078125 38.40277777777778)"/><use xlink:href="#P" transform="matrix(1,0,0,1,696.0393585194483,922.5) translate(31.526692708333336 65.29079861111111)"/><use xlink:href="#S" transform="matrix(1,0,0,1,696.0393585194483,922.5) translate(63.86176215277778 65.29079861111111)"/></g><path d="M497.95 828.5v-325a6 6 0 0 1 6-6h167.6M497.95 828.47v4.03" stroke="#5e5e5e" stroke-width="2" fill="none"/><path d="M686.8 497.5l-14.26 4.63v-9.26z" stroke="#5e5e5e" stroke-width="2" fill="#5e5e5e"/><path d="M497.95 1119.72V957" stroke="#5e5e5e" stroke-width="2" fill="none"/><path d="M498.92 1120.72h-1.95v-1.02h1.95z" stroke="#5e5e5e" stroke-width=".05" fill="#5e5e5e"/><path d="M497.95 941.74l4.63 14.26h-9.27z" stroke="#5e5e5e" stroke-width="2" fill="#5e5e5e"/><path d="M771.04 559.5v68.45" stroke="#5e5e5e" stroke-width="2" fill="none"/><path d="M772 559.53h-1.94v-1.03H772z" stroke="#5e5e5e" stroke-width=".05" fill="#5e5e5e"/><path d="M771.04 643.22l-4.64-14.27h9.27z" stroke="#5e5e5e" stroke-width="2" fill="#5e5e5e"/><path d="M771.04 759.5v128.45" stroke="#5e5e5e" stroke-width="2" fill="none"/><path d="M772 759.53h-1.94v-1.03H772z" stroke="#5e5e5e" stroke-width=".05" fill="#5e5e5e"/><path d="M771.04 903.22l-4.64-14.27h9.27z" stroke="#5e5e5e" stroke-width="2" fill="#5e5e5e"/><path d="M707.62 1125.42a9.06 9.06 0 0 1 7.94-9l144.13-17.93a7.07 7.07 0 0 1 7.92 7v104a8 8 0 0 1-8 8h-144a8 8 0 0 1-8-8z" stroke="#000" stroke-width="2" fill="#fff"/><g><use xlink:href="#ah" transform="matrix(1,0,0,1,712.6238331520258,1122.5) translate(17.366536458333336 52.46527777777778)"/><use xlink:href="#ai" transform="matrix(1,0,0,1,712.6238331520258,1122.5) translate(71.60915798611111 52.46527777777778)"/><use xlink:href="#aj" transform="matrix(1,0,0,1,712.6238331520258,1122.5) translate(90.33745659722223 52.46527777777778)"/></g><path d="M869.62 1157.5h23.7a6 6 0 0 1 6 6v143.78a6 6 0 0 0 6 6h6.22" stroke="#5e5e5e" stroke-width="2" fill="none"/><path d="M869.65 1158.47h-1.03v-1.94h1.03z" stroke="#5e5e5e" stroke-width=".05" fill="#5e5e5e"/><path d="M926.8 1313.28l-14.26 4.63v-9.26z" stroke="#5e5e5e" stroke-width="2" fill="#5e5e5e"/><path d="M931.04 1261.28a8 8 0 0 1 8-8h144a8 8 0 0 1 8 8v104a8 8 0 0 1-8 8h-144a8 8 0 0 1-8-8z" stroke="#000" stroke-width="2" fill="#fff"/><g><use xlink:href="#ak" transform="matrix(1,0,0,1,936.0393585194483,1258.276041666667) translate(1.9965277777777715 24.96527777777778)"/><use xlink:href="#al" transform="matrix(1,0,0,1,936.0393585194483,1258.276041666667) translate(63.02083333333332 24.96527777777778)"/><use xlink:href="#am" transform="matrix(1,0,0,1,936.0393585194483,1258.276041666667) translate(83.97352430555554 24.96527777777778)"/><use xlink:href="#an" transform="matrix(1,0,0,1,936.0393585194483,1258.276041666667) translate(133.30078125 24.96527777777778)"/><use xlink:href="#ao" transform="matrix(1,0,0,1,936.0393585194483,1258.276041666667) translate(23.513454861111114 51.853298611111114)"/><use xlink:href="#ap" transform="matrix(1,0,0,1,936.0393585194483,1258.276041666667) translate(73.01432291666667 51.853298611111114)"/><use xlink:href="#aq" transform="matrix(1,0,0,1,936.0393585194483,1258.276041666667) translate(87.27213541666667 51.853298611111114)"/><use xlink:href="#ar" transform="matrix(1,0,0,1,936.0393585194483,1258.276041666667) translate(115.35373263888889 51.853298611111114)"/><use xlink:href="#as" transform="matrix(1,0,0,1,936.0393585194483,1258.276041666667) translate(8.588324652777771 78.74131944444446)"/><use xlink:href="#al" transform="matrix(1,0,0,1,936.0393585194483,1258.276041666667) translate(64.03537326388889 78.74131944444446)"/><use xlink:href="#at" transform="matrix(1,0,0,1,936.0393585194483,1258.276041666667) translate(84.98806423611111 78.74131944444446)"/><use xlink:href="#ar" transform="matrix(1,0,0,1,936.0393585194483,1258.276041666667) translate(130.27886284722223 78.74131944444446)"/><use xlink:href="#au" transform="matrix(1,0,0,1,936.0393585194483,1258.276041666667) translate(22.91666666666667 105.62934027777777)"/><use xlink:href="#av" transform="matrix(1,0,0,1,936.0393585194483,1258.276041666667) translate(63.43315972222223 105.62934027777777)"/><use xlink:href="#aw" transform="matrix(1,0,0,1,936.0393585194483,1258.276041666667) translate(84.38585069444446 105.62934027777777)"/></g><path d="M134.5 463.42a6.8 6.8 0 0 1 5.95-6.74l148.1-18.44a5.3 5.3 0 0 1 5.94 5.26v108a6 6 0 0 1-6 6h-148a6 6 0 0 1-6-6z" stroke="#3a414a" stroke-width="2" fill="#fff"/><g><use xlink:href="#ax" transform="matrix(1,0,0,1,139.49393612178778,462.5) translate(31.24457465277778 27.15277777777778)"/><use xlink:href="#ay" transform="matrix(1,0,0,1,139.49393612178778,462.5) translate(94.54752604166666 27.15277777777778)"/><use xlink:href="#az" transform="matrix(1,0,0,1,139.49393612178778,462.5) translate(19.28168402777778 54.040798611111114)"/><use xlink:href="#aA" transform="matrix(1,0,0,1,139.49393612178778,462.5) translate(83.57204861111111 54.040798611111114)"/><use xlink:href="#aB" transform="matrix(1,0,0,1,139.49393612178778,462.5) translate(57.443576388888886 80.92881944444446)"/></g><path d="M417.95 843.42a6.8 6.8 0 0 1 5.95-6.74L572 818.24a5.3 5.3 0 0 1 5.95 5.26v108a6 6 0 0 1-6 6h-148a6 6 0 0 1-6-6z" stroke="#3a414a" stroke-width="2" fill="#fff"/><g><use xlink:href="#ax" transform="matrix(1,0,0,1,422.9485137241272,842.5) translate(31.24457465277778 27.15277777777778)"/><use xlink:href="#ay" transform="matrix(1,0,0,1,422.9485137241272,842.5) translate(94.54752604166666 27.15277777777778)"/><use xlink:href="#az" transform="matrix(1,0,0,1,422.9485137241272,842.5) translate(19.28168402777778 54.040798611111114)"/><use xlink:href="#aA" transform="matrix(1,0,0,1,422.9485137241272,842.5) translate(83.57204861111111 54.040798611111114)"/><use xlink:href="#aC" transform="matrix(1,0,0,1,422.9485137241272,842.5) translate(53.65125868055556 80.92881944444446)"/></g><path d="M929.04 1313.28h-112a6 6 0 0 0-6 6v68a6 6 0 0 1-6 6h-94.5" stroke="#5e5e5e" stroke-width="2" fill="none"/><path d="M930.04 1314.25H929v-1.95h1.04z" stroke="#5e5e5e" stroke-width=".05" fill="#5e5e5e"/><path d="M695.27 1393.28l14.27-4.64v9.27z" stroke="#5e5e5e" stroke-width="2" fill="#5e5e5e"/><path d="M531.04 1341.28a8 8 0 0 1 8-8h144a8 8 0 0 1 8 8v104a8 8 0 0 1-8 8h-144a8 8 0 0 1-8-8z" stroke="#000" stroke-width="2" fill="#fff"/><g><use xlink:href="#aD" transform="matrix(1,0,0,1,536.0393585194483,1338.276041666667) translate(16.899956597222214 49.02777777777778)"/><use xlink:href="#av" transform="matrix(1,0,0,1,536.0393585194483,1338.276041666667) translate(53.01106770833333 49.02777777777778)"/><use xlink:href="#aE" transform="matrix(1,0,0,1,536.0393585194483,1338.276041666667) translate(73.96375868055554 49.02777777777778)"/><use xlink:href="#an" transform="matrix(1,0,0,1,536.0393585194483,1338.276041666667) translate(118.39735243055556 49.02777777777778)"/><use xlink:href="#aF" transform="matrix(1,0,0,1,536.0393585194483,1338.276041666667) translate(36.62109375 75.91579861111111)"/><use xlink:href="#ap" transform="matrix(1,0,0,1,536.0393585194483,1338.276041666667) translate(85.56857638888889 75.91579861111111)"/><use xlink:href="#aG" transform="matrix(1,0,0,1,536.0393585194483,1338.276041666667) translate(99.82638888888889 75.91579861111111)"/></g><path d="M611.04 1455.28v34.1a6 6 0 0 0 6 6H768.5a6 6 0 0 1 6 6V1518" stroke="#5e5e5e" stroke-width="2" fill="none"/><path d="M612 1455.3h-1.94v-1.02H612z" stroke="#5e5e5e" stroke-width=".05" fill="#5e5e5e"/><path d="M774.5 1533.26l-4.64-14.26h9.27z" stroke="#5e5e5e" stroke-width="2" fill="#5e5e5e"/><path d="M694.5 1545.5a8 8 0 0 1 8-8h144a8 8 0 0 1 8 8v104a8 8 0 0 1-8 8h-144a8 8 0 0 1-8-8z" stroke="#000" stroke-width="2" fill="#fff"/><g><use xlink:href="#aH" transform="matrix(1,0,0,1,699.4939361217878,1542.5) translate(3.358289930555557 24.96527777777778)"/><use xlink:href="#aI" transform="matrix(1,0,0,1,699.4939361217878,1542.5) translate(49.484592013888886 24.96527777777778)"/><use xlink:href="#aJ" transform="matrix(1,0,0,1,699.4939361217878,1542.5) translate(102.04535590277777 24.96527777777778)"/><use xlink:href="#aK" transform="matrix(1,0,0,1,699.4939361217878,1542.5) translate(13.037109375000007 51.853298611111114)"/><use xlink:href="#aL" transform="matrix(1,0,0,1,699.4939361217878,1542.5) translate(38.6447482638889 51.853298611111114)"/><use xlink:href="#aM" transform="matrix(1,0,0,1,699.4939361217878,1542.5) translate(9.727647569444457 78.74131944444446)"/><use xlink:href="#aN" transform="matrix(1,0,0,1,699.4939361217878,1542.5) translate(42.909071180555564 78.74131944444446)"/><use xlink:href="#aO" transform="matrix(1,0,0,1,699.4939361217878,1542.5) translate(34.29904513888889 105.62934027777777)"/></g><path d="M692.5 1597.5H534" stroke="#5e5e5e" stroke-width="2" fill="none"/><path d="M693.5 1598.47h-1.03v-1.94h1.02z" stroke="#5e5e5e" stroke-width=".05" fill="#5e5e5e"/><path d="M518.73 1597.5l14.27-4.63v9.27z" stroke="#5e5e5e" stroke-width="2" fill="#5e5e5e"/><path d="M474.5 1557.5c22.08 0 40 17.9 40 40s-17.92 40-40 40h-80c-22.1 0-40-17.9-40-40s17.9-40 40-40z" stroke="#000" stroke-width="2" fill="#fff"/><g><use xlink:href="#aP" transform="matrix(1,0,0,1,359.4939361217878,1562.5) translate(55.419921875 43.40277777777778)"/></g><path d="M214.5 559.5v67.67" stroke="#5e5e5e" stroke-width="2" fill="none"/><path d="M215.47 559.53h-1.95v-1.03h1.95z" stroke="#5e5e5e" stroke-width=".05" fill="#5e5e5e"/><path d="M214.5 642.44l-4.64-14.27h9.27z" stroke="#5e5e5e" stroke-width="2" fill="#5e5e5e"/><path d="M208.27 1219.5v88.45" stroke="#5e5e5e" stroke-width="2" fill="none"/><path d="M209.25 1219.53h-1.95v-1.03h1.95z" stroke="#5e5e5e" stroke-width=".05" fill="#5e5e5e"/><path d="M208.27 1323.22l-4.63-14.27h9.27z" stroke="#5e5e5e" stroke-width="2" fill="#5e5e5e"/><path d="M771.04 1019.5v70.52" stroke="#5e5e5e" stroke-width="2" fill="none"/><path d="M772 1019.53h-1.94v-1.03H772z" stroke="#5e5e5e" stroke-width=".05" fill="#5e5e5e"/><path d="M771.04 1105.28l-4.64-14.26h9.27z" stroke="#5e5e5e" stroke-width="2" fill="#5e5e5e"/><defs><path d="M370-1490V0H180v-1490h190" id="aQ"/><path d="M180 0v-1490h224l606 953c40 63 108 177 176 312-27-437-7-821-13-1265h190V0h-226C860-448 622-778 356-1262c27 476 11 792 15 1262H180" id="aR"/><path d="M783 20c-382 0-661-292-661-764 0-473 279-766 661-766 302 0 548 182 601 489h-190c-42-204-217-313-411-313-268 0-476 208-476 590 0 381 209 588 476 588 195 0 369-110 411-313h190c-52 303-296 489-601 489" id="aS"/><path d="M784 20c-382 0-662-292-662-764 0-473 280-766 662-766s660 293 660 766c0 472-278 764-660 764zm0-176c266 0 475-207 475-588 0-383-209-590-475-590-268 0-477 208-477 590 0 380 209 588 477 588" id="aT"/><g id="a"><use transform="matrix(0.007595486111111112,0,0,0.007595486111111112,0,0)" xlink:href="#aQ"/><use transform="matrix(0.007595486111111112,0,0,0.007595486111111112,4.177517361111112,0)" xlink:href="#aR"/><use transform="matrix(0.007595486111111112,0,0,0.007595486111111112,15.897352430555557,0)" xlink:href="#aQ"/><use transform="matrix(0.007595486111111112,0,0,0.007595486111111112,20.074869791666668,0)" xlink:href="#aS"/><use transform="matrix(0.007595486111111112,0,0,0.007595486111111112,31.437717013888893,0)" xlink:href="#aQ"/><use transform="matrix(0.007595486111111112,0,0,0.007595486111111112,35.61523437500001,0)" xlink:href="#aT"/></g><path d="M784 20c-382 0-662-292-662-764 0-473 280-766 662-766s660 293 660 766c0 282-99 499-260 629l192 255h-198L1049-33C969 2 880 20 784 20zm-62-486h198l156 205c112-98 183-261 183-483 0-383-209-590-475-590-268 0-477 208-477 590 0 380 209 588 477 588 54 0 106-9 154-25" id="aU"/><path d="M537 14c-226 0-379-139-379-422v-710h180v695c0 172 97 275 253 275 160 0 281-109 281-300v-670h181V0H879v-209C806-46 684 14 537 14" id="aV"/><path d="M471 26C259 26 90-98 90-318c0-256 228-303 435-329 202-27 287-16 287-108 0-139-79-219-234-219-161 0-248 86-283 164l-173-57c86-203 278-265 451-265 150 0 419 46 419 395V0H815v-152h-12C765-73 660 26 471 26zm31-159c199 0 310-134 310-271v-155c-30 35-226 55-295 64-131 17-246 59-246 186 0 116 97 176 231 176" id="aW"/><path d="M338-1490V0H158v-1490h180" id="aX"/><g id="b"><use transform="matrix(0.007595486111111112,0,0,0.007595486111111112,0,0)" xlink:href="#aU"/><use transform="matrix(0.007595486111111112,0,0,0.007595486111111112,11.894531250000002,0)" xlink:href="#aV"/><use transform="matrix(0.007595486111111112,0,0,0.007595486111111112,21.092664930555557,0)" xlink:href="#aW"/><use transform="matrix(0.007595486111111112,0,0,0.007595486111111112,29.827473958333336,0)" xlink:href="#aX"/></g><path d="M613 24c-304 0-509-231-509-576 0-350 205-580 509-580 305 0 511 230 511 580 0 345-206 576-511 576zm0-161c226 0 329-195 329-415 0-222-103-419-329-419-223 0-326 196-326 419 0 220 103 415 326 415" id="aY"/><use transform="matrix(0.007595486111111112,0,0,0.007595486111111112,0,0)" xlink:href="#aY" id="c"/><path d="M481 0L54-1118h197c107 314 236 620 325 951 87-331 217-637 324-951h197L670 0H481" id="aZ"/><path d="M158 0v-1118h174v172h12c41-113 157-188 290-188 26 0 70 2 91 3v181c-11-2-60-10-108-10-161 0-279 109-279 260V0H158" id="ba"/><g id="d"><use transform="matrix(0.007595486111111112,0,0,0.007595486111111112,0,0)" xlink:href="#aZ"/><use transform="matrix(0.007595486111111112,0,0,0.007595486111111112,8.666449652777779,0)" xlink:href="#aW"/><use transform="matrix(0.007595486111111112,0,0,0.007595486111111112,17.401258680555557,0)" xlink:href="#aX"/><use transform="matrix(0.007595486111111112,0,0,0.007595486111111112,21.168619791666668,0)" xlink:href="#aY"/><use transform="matrix(0.007595486111111112,0,0,0.007595486111111112,30.495876736111114,0)" xlink:href="#ba"/></g><path d="M628 24c-324 0-524-230-524-574 0-343 198-582 503-582 237 0 487 146 487 559v75H286c9 234 145 362 343 362 132 0 231-58 273-172l174 48C1024-91 857 24 628 24zM287-650h624c-17-190-120-322-304-322-192 0-309 151-320 322" id="bb"/><path d="M158 0v-1118h175l1 205c55-151 181-225 313-225 147 0 245 90 285 228 53-141 190-228 352-228 194 0 352 125 352 384V0h-181v-749c0-161-105-225-225-225-151 0-243 103-243 244V0H807v-767c0-124-93-207-219-207-131 0-250 92-250 270V0H158" id="bc"/><g id="e"><use transform="matrix(0.007595486111111112,0,0,0.007595486111111112,0,0)" xlink:href="#bb"/><use transform="matrix(0.007595486111111112,0,0,0.007595486111111112,9.069010416666668,0)" xlink:href="#bc"/></g><path d="M180 0v-1490h510c348 0 508 194 508 460 0 198-88 351-276 417L1256 0h-220L726-579c-117 2-238 0-356 1V0H180zm190-747h312c235 0 327-108 327-283 0-177-92-293-329-293H370v576" id="bd"/><path d="M597 218V24C309 5 132-156 116-390h195c13 149 137 227 286 243v-538c-251-59-439-189-439-406 0-230 187-390 439-415v-202h120v199c269 18 452 182 461 395H992c-15-130-125-210-275-225v505l59 16c160 44 422 134 422 412 0 229-174 409-481 430v194H597zm120-365c172-19 296-119 296-262 0-144-136-198-296-242v504zM597-868v-470c-155 21-254 115-254 238 0 142 146 201 254 232" id="be"/><path d="M383-449c-3-277 82-343 222-425 88-53 156-134 156-250 0-139-108-227-243-227-118 0-235 70-246 236H82c10-251 200-395 436-395 259 0 427 165 427 393 0 161-74 273-203 352-132 80-180 132-178 316H383zm93 462c-75 0-135-60-135-134 0-75 60-135 135-135 74 0 134 60 134 135 0 74-60 134-134 134" id="bf"/><g id="f"><use transform="matrix(0.007595486111111112,0,0,0.007595486111111112,0,0)" xlink:href="#bd"/><use transform="matrix(0.007595486111111112,0,0,0.007595486111111112,10.010850694444445,0)" xlink:href="#be"/><use transform="matrix(0.007595486111111112,0,0,0.007595486111111112,19.991319444444446,0)" xlink:href="#bf"/></g><path d="M180 0v-1490h190v1322h690V0H180" id="bg"/><path d="M613 24c-304 0-509-231-509-576 0-350 205-580 509-580 305 0 511 230 511 580 0 345-206 576-511 576zm0-161c226 0 329-195 329-415 0-222-103-419-329-419-223 0-326 196-326 419 0 220 103 415 326 415zm-79-1127l140-294h201l-194 294H534" id="bh"/><path d="M611 442c-248 0-391-105-460-228l146-94c47 65 117 165 314 165 178 0 307-82 307-266v-224h-17C863-141 792-18 576-18c-268 0-472-195-472-546 0-346 197-568 476-568 216 0 288 133 326 193h17v-179h175V29c0 289-215 413-487 413zm-5-620c203 0 314-146 314-390 0-237-108-403-314-403-213 0-319 180-319 403 0 230 109 390 319 390" id="bi"/><path d="M158 0v-1118h180V0H158zm91-1301c-68 0-125-53-125-119s57-119 125-119c69 0 126 53 126 119s-57 119-126 119" id="bj"/><path d="M613 24c-304 0-509-231-509-576 0-350 205-580 509-580 216 0 392 114 453 309l-173 49c-33-115-133-197-280-197-223 0-326 196-326 419 0 220 103 415 326 415 150 0 252-85 285-206l172 49C1010-95 832 24 613 24" id="bk"/><g id="g"><use transform="matrix(0.010850694444444444,0,0,0.010850694444444444,0,0)" xlink:href="#bg"/><use transform="matrix(0.008173828125000001,0,0,0.008173828125000001,12.565104166666666,0)" xlink:href="#bh"/><use transform="matrix(0.008173828125000001,0,0,0.008173828125000001,22.602565104166665,0)" xlink:href="#bi"/><use transform="matrix(0.008173828125000001,0,0,0.008173828125000001,32.868893229166666,0)" xlink:href="#bj"/><use transform="matrix(0.008173828125000001,0,0,0.008173828125000001,36.92311197916666,0)" xlink:href="#bk"/><use transform="matrix(0.008173828125000001,0,0,0.008173828125000001,46.649967447916666,0)" xlink:href="#aW"/></g><path d="M577 24c-279 0-473-224-473-580 0-354 195-576 474-576 218 0 287 134 324 193h14v-551h180V0H922v-173h-20C865-111 790 24 577 24zm27-161c203 0 314-172 314-421 0-247-108-413-314-413-212 0-317 181-317 413 0 235 108 421 317 421" id="bl"/><g id="h"><use transform="matrix(0.008173828125000001,0,0,0.008173828125000001,0,0)" xlink:href="#bl"/><use transform="matrix(0.008173828125000001,0,0,0.008173828125000001,10.249980468750001,0)" xlink:href="#bb"/></g><path d="M180 0v-1490h510c348 0 508 209 508 474 0 266-160 477-507 477H370V0H180zm190-706h312c236 0 327-133 327-310 0-176-91-307-329-307H370v617" id="bm"/><path d="M502 418V313h118c73 0 98-17 98-66s-25-65-98-65h-82l21-161C285-4 104-228 104-552c0-350 205-580 509-580 216 0 392 114 453 309l-173 49c-33-115-133-197-280-197-223 0-326 196-326 419 0 220 103 415 326 415 150 0 252-85 285-206l172 49C1015-110 859 5 663 22v64c130 5 189 54 189 162 0 118-71 170-231 170H502" id="bn"/><path d="M471 26C259 26 90-98 90-318c0-256 228-303 435-329 202-27 287-16 287-108 0-139-79-219-234-219-161 0-248 86-283 164l-173-57c86-203 278-265 451-265 150 0 419 46 419 395V0H815v-152h-12C765-73 660 26 471 26zm31-159c199 0 310-134 310-271v-155c-30 35-226 55-295 64-131 17-246 59-246 186 0 116 97 176 231 176zm187-1180c-99 0-192-83-243-83-35 0-51 40-53 79H267c4-120 55-208 162-208 104 0 174 85 241 85 33 0 49-23 56-81h123c-4 126-62 208-160 208" id="bo"/><g id="i"><use transform="matrix(0.008173828125000001,0,0,0.008173828125000001,0,0)" xlink:href="#bm"/><use transform="matrix(0.008173828125000001,0,0,0.008173828125000001,10.691367187500001,0)" xlink:href="#ba"/><use transform="matrix(0.008173828125000001,0,0,0.008173828125000001,16.715478515625,0)" xlink:href="#aY"/><use transform="matrix(0.008173828125000001,0,0,0.008173828125000001,26.752939453125002,0)" xlink:href="#bi"/><use transform="matrix(0.008173828125000001,0,0,0.008173828125000001,37.019267578125,0)" xlink:href="#ba"/><use transform="matrix(0.008173828125000001,0,0,0.008173828125000001,43.3212890625,0)" xlink:href="#aW"/><use transform="matrix(0.008173828125000001,0,0,0.008173828125000001,52.72119140625,0)" xlink:href="#bc"/><use transform="matrix(0.008173828125000001,0,0,0.008173828125000001,67.3850390625,0)" xlink:href="#aW"/><use transform="matrix(0.008173828125000001,0,0,0.008173828125000001,76.78494140625,0)" xlink:href="#bn"/><use transform="matrix(0.008173828125000001,0,0,0.008173828125000001,86.51179687499999,0)" xlink:href="#bo"/><use transform="matrix(0.008173828125000001,0,0,0.008173828125000001,95.91169921874999,0)" xlink:href="#aY"/></g><path d="M52 0l541-1490h220L1361 0h-200l-149-416H398L254 0H52zm404-582h497c-103-290-145-390-251-756-108 377-145 460-246 756" id="bp"/><path d="M598-1118v154H368v674c0 100 37 144 132 144 23 0 62-6 92-12L629-6c-37 13-88 20-134 20-193 0-307-107-307-290v-688H20v-154h168v-266h180v266h230" id="bq"/><g id="k"><use transform="matrix(0.007595486111111112,0,0,0.007595486111111112,0,0)" xlink:href="#bp"/><use transform="matrix(0.007595486111111112,0,0,0.007595486111111112,10.732421875000002,0)" xlink:href="#aX"/><use transform="matrix(0.007595486111111112,0,0,0.007595486111111112,14.499782986111114,0)" xlink:href="#bi"/><use transform="matrix(0.007595486111111112,0,0,0.007595486111111112,24.03971354166667,0)" xlink:href="#aY"/><use transform="matrix(0.007595486111111112,0,0,0.007595486111111112,33.366970486111114,0)" xlink:href="#ba"/><use transform="matrix(0.007595486111111112,0,0,0.007595486111111112,39.466145833333336,0)" xlink:href="#bj"/><use transform="matrix(0.007595486111111112,0,0,0.007595486111111112,43.23350694444445,0)" xlink:href="#bq"/><use transform="matrix(0.007595486111111112,0,0,0.007595486111111112,48.32248263888889,0)" xlink:href="#bc"/><use transform="matrix(0.007595486111111112,0,0,0.007595486111111112,61.94878472222223,0)" xlink:href="#aY"/></g><path d="M653-1490V0H466v-1314h-10L96-1047v-204l324-239h233" id="br"/><use transform="matrix(0.007595486111111112,0,0,0.007595486111111112,0,0)" xlink:href="#br" id="l"/><use transform="matrix(0.007595486111111112,0,0,0.007595486111111112,0,0)" xlink:href="#aW" id="n"/><g id="o"><use transform="matrix(0.007595486111111112,0,0,0.007595486111111112,0,0)" xlink:href="#bk"/><use transform="matrix(0.007595486111111112,0,0,0.007595486111111112,8.886718750000002,0)" xlink:href="#aY"/><use transform="matrix(0.007595486111111112,0,0,0.007595486111111112,18.213975694444446,0)" xlink:href="#bq"/><use transform="matrix(0.007595486111111112,0,0,0.007595486111111112,23.37890625,0)" xlink:href="#aW"/><use transform="matrix(0.007595486111111112,0,0,0.007595486111111112,32.11371527777778,0)" xlink:href="#bn"/><use transform="matrix(0.007595486111111112,0,0,0.007595486111111112,41.15234375,0)" xlink:href="#bo"/><use transform="matrix(0.007595486111111112,0,0,0.007595486111111112,49.88715277777778,0)" xlink:href="#aY"/></g><g id="p"><use transform="matrix(0.007595486111111112,0,0,0.007595486111111112,0,0)" xlink:href="#bl"/><use transform="matrix(0.007595486111111112,0,0,0.007595486111111112,9.524739583333334,0)" xlink:href="#aY"/></g><path d="M645 0H180v-1490h484c435 0 692 280 692 742 0 466-257 748-711 748zM370-168h263c363 0 539-218 539-580 0-358-176-574-521-574H370v1154" id="bs"/><g id="q"><use transform="matrix(0.007595486111111112,0,0,0.007595486111111112,0,0)" xlink:href="#bs"/><use transform="matrix(0.007595486111111112,0,0,0.007595486111111112,11.226128472222223,0)" xlink:href="#aY"/><use transform="matrix(0.007595486111111112,0,0,0.007595486111111112,20.553385416666668,0)" xlink:href="#aX"/><use transform="matrix(0.007595486111111112,0,0,0.007595486111111112,24.32074652777778,0)" xlink:href="#aW"/><use transform="matrix(0.007595486111111112,0,0,0.007595486111111112,33.05555555555556,0)" xlink:href="#ba"/><use transform="matrix(0.007595486111111112,0,0,0.007595486111111112,38.91167534722222,0)" xlink:href="#bf"/></g><path d="M600 0L52-1490h200c166 485 304 806 458 1336 156-533 285-846 449-1336h202L819 0H600" id="bt"/><g id="r"><use transform="matrix(0.007595486111111112,0,0,0.007595486111111112,0,0)" xlink:href="#bt"/><use transform="matrix(0.007595486111111112,0,0,0.007595486111111112,9.942491319444446,0)" xlink:href="#aW"/><use transform="matrix(0.007595486111111112,0,0,0.007595486111111112,18.677300347222225,0)" xlink:href="#aX"/><use transform="matrix(0.007595486111111112,0,0,0.007595486111111112,22.444661458333336,0)" xlink:href="#aY"/><use transform="matrix(0.007595486111111112,0,0,0.007595486111111112,31.771918402777782,0)" xlink:href="#ba"/></g><g id="s"><use transform="matrix(0.007595486111111112,0,0,0.007595486111111112,0,0)" xlink:href="#bd"/><use transform="matrix(0.007595486111111112,0,0,0.007595486111111112,10.010850694444445,0)" xlink:href="#be"/></g><path d="M692-1560L212 224H46l480-1784h166" id="bu"/><use transform="matrix(0.007595486111111112,0,0,0.007595486111111112,0,0)" xlink:href="#bu" id="t"/><g id="u"><use transform="matrix(0.007595486111111112,0,0,0.007595486111111112,0,0)" xlink:href="#aS"/><use transform="matrix(0.007595486111111112,0,0,0.007595486111111112,11.362847222222223,0)" xlink:href="#aY"/><use transform="matrix(0.007595486111111112,0,0,0.007595486111111112,20.690104166666668,0)" xlink:href="#bq"/><use transform="matrix(0.007595486111111112,0,0,0.007595486111111112,25.85503472222222,0)" xlink:href="#aW"/><use transform="matrix(0.007595486111111112,0,0,0.007595486111111112,34.58984375,0)" xlink:href="#bn"/><use transform="matrix(0.007595486111111112,0,0,0.007595486111111112,43.62847222222222,0)" xlink:href="#bo"/><use transform="matrix(0.007595486111111112,0,0,0.007595486111111112,52.36328125,0)" xlink:href="#aY"/></g><g id="v"><use transform="matrix(0.007595486111111112,0,0,0.007595486111111112,0,0)" xlink:href="#bs"/><use transform="matrix(0.007595486111111112,0,0,0.007595486111111112,11.226128472222223,0)" xlink:href="#aY"/><use transform="matrix(0.007595486111111112,0,0,0.007595486111111112,20.553385416666668,0)" xlink:href="#aX"/><use transform="matrix(0.007595486111111112,0,0,0.007595486111111112,24.32074652777778,0)" xlink:href="#aW"/><use transform="matrix(0.007595486111111112,0,0,0.007595486111111112,33.05555555555556,0)" xlink:href="#ba"/></g><path d="M538 24C308 24 148-78 108-271l171-41c32 123 123 178 257 178 156 0 256-77 256-169 0-77-54-128-164-154l-186-44c-203-48-300-148-300-305 0-192 176-326 414-326 230 0 351 112 402 269l-163 42c-31-80-94-158-238-158-133 0-233 69-233 162 0 83 57 129 188 160l169 40c203 48 298 149 298 302 0 196-179 339-441 339" id="bv"/><g id="w"><use transform="matrix(0.007595486111111112,0,0,0.007595486111111112,0,0)" xlink:href="#bd"/><use transform="matrix(0.007595486111111112,0,0,0.007595486111111112,9.78298611111111,0)" xlink:href="#bb"/><use transform="matrix(0.007595486111111112,0,0,0.007595486111111112,18.85199652777778,0)" xlink:href="#bv"/><use transform="matrix(0.007595486111111112,0,0,0.007595486111111112,27.062717013888893,0)" xlink:href="#aV"/><use transform="matrix(0.007595486111111112,0,0,0.007595486111111112,36.26085069444445,0)" xlink:href="#aX"/><use transform="matrix(0.007595486111111112,0,0,0.007595486111111112,40.2560763888889,0)" xlink:href="#bq"/><use transform="matrix(0.007595486111111112,0,0,0.007595486111111112,45.42100694444446,0)" xlink:href="#aW"/><use transform="matrix(0.007595486111111112,0,0,0.007595486111111112,54.155815972222236,0)" xlink:href="#bl"/><use transform="matrix(0.007595486111111112,0,0,0.007595486111111112,63.68055555555558,0)" xlink:href="#aY"/></g><g id="x"><use transform="matrix(0.007595486111111112,0,0,0.007595486111111112,0,0)" xlink:href="#bl"/><use transform="matrix(0.007595486111111112,0,0,0.007595486111111112,9.524739583333334,0)" xlink:href="#aY"/></g><path d="M158 418v-1536h174v179h20c37-59 106-193 324-193 279 0 474 222 474 576 0 356-194 580-473 580-213 0-288-135-325-197h-14v591H158zm492-555c209 0 317-186 317-421 0-232-105-413-317-413-206 0-314 166-314 413 0 249 111 421 314 421" id="bw"/><g id="y"><use transform="matrix(0.007595486111111112,0,0,0.007595486111111112,0,0)" xlink:href="#bw"/><use transform="matrix(0.007595486111111112,0,0,0.007595486111111112,9.524739583333334,0)" xlink:href="#ba"/><use transform="matrix(0.007595486111111112,0,0,0.007595486111111112,15.122612847222221,0)" xlink:href="#aY"/><use transform="matrix(0.007595486111111112,0,0,0.007595486111111112,24.449869791666664,0)" xlink:href="#bk"/><use transform="matrix(0.007595486111111112,0,0,0.007595486111111112,33.336588541666664,0)" xlink:href="#bb"/><use transform="matrix(0.007595486111111112,0,0,0.007595486111111112,42.40559895833333,0)" xlink:href="#bv"/><use transform="matrix(0.007595486111111112,0,0,0.007595486111111112,50.61631944444444,0)" xlink:href="#bv"/><use transform="matrix(0.007595486111111112,0,0,0.007595486111111112,58.82703993055556,0)" xlink:href="#aY"/></g><path d="M338-670V0H158v-1118h173l1 207c72-158 192-221 342-221 226 0 378 139 378 422V0H872v-695c0-172-96-275-252-275-161 0-282 109-282 300" id="bx"/><g id="z"><use transform="matrix(0.007595486111111112,0,0,0.007595486111111112,0,0)" xlink:href="#aW"/><use transform="matrix(0.007595486111111112,0,0,0.007595486111111112,8.734809027777779,0)" xlink:href="#bx"/><use transform="matrix(0.007595486111111112,0,0,0.007595486111111112,17.92534722222222,0)" xlink:href="#bq"/><use transform="matrix(0.007595486111111112,0,0,0.007595486111111112,22.862413194444443,0)" xlink:href="#bb"/><use transform="matrix(0.007595486111111112,0,0,0.007595486111111112,31.931423611111107,0)" xlink:href="#ba"/><use transform="matrix(0.007595486111111112,0,0,0.007595486111111112,38.03059895833333,0)" xlink:href="#bj"/><use transform="matrix(0.007595486111111112,0,0,0.007595486111111112,41.79796006944444,0)" xlink:href="#aY"/><use transform="matrix(0.007595486111111112,0,0,0.007595486111111112,51.125217013888886,0)" xlink:href="#ba"/></g><path d="M154 0v-137l495-537c165-179 249-281 249-418 0-156-121-253-280-253-170 0-278 110-278 278H158c0-264 200-443 465-443 266 0 455 183 455 416 0 161-73 288-336 568L416-179v12h687V0H154" id="by"/><use transform="matrix(0.007595486111111112,0,0,0.007595486111111112,0,0)" xlink:href="#by" id="A"/><g id="B"><use transform="matrix(0.010850694444444444,0,0,0.010850694444444444,0,0)" xlink:href="#aQ"/><use transform="matrix(0.010850694444444444,0,0,0.010850694444444444,5.967881944444445,0)" xlink:href="#bx"/><use transform="matrix(0.010850694444444444,0,0,0.010850694444444444,19.09722222222222,0)" xlink:href="#bj"/><use transform="matrix(0.010850694444444444,0,0,0.010850694444444444,24.479166666666664,0)" xlink:href="#bk"/><use transform="matrix(0.010850694444444444,0,0,0.010850694444444444,37.174479166666664,0)" xlink:href="#bj"/><use transform="matrix(0.010850694444444444,0,0,0.010850694444444444,42.55642361111111,0)" xlink:href="#aY"/></g><path d="M180 0v-1490h901v168H370v510h643v168H370V0H180" id="bz"/><path d="M180 0v-1490h270l367 940c28 72 75 218 110 339 35-117 81-264 110-339l362-940h271V0h-187c2-448-5-837 7-1287-157 497-311 829-483 1287H842C666-458 514-784 354-1284c12 438 5 843 7 1284H180" id="bA"/><g id="C"><use transform="matrix(0.007595486111111112,0,0,0.007595486111111112,0,0)" xlink:href="#bz"/><use transform="matrix(0.007595486111111112,0,0,0.007595486111111112,9.182942708333334,0)" xlink:href="#aQ"/><use transform="matrix(0.007595486111111112,0,0,0.007595486111111112,13.360460069444446,0)" xlink:href="#bA"/></g><g id="D"><use transform="matrix(0.007595486111111112,0,0,0.007595486111111112,0,0)" xlink:href="#aU"/><use transform="matrix(0.007595486111111112,0,0,0.007595486111111112,11.894531250000002,0)" xlink:href="#aV"/><use transform="matrix(0.007595486111111112,0,0,0.007595486111111112,21.092664930555557,0)" xlink:href="#aW"/><use transform="matrix(0.007595486111111112,0,0,0.007595486111111112,29.827473958333336,0)" xlink:href="#aX"/></g><use transform="matrix(0.007595486111111112,0,0,0.007595486111111112,0,0)" xlink:href="#aY" id="E"/><path d="M471 26C259 26 90-98 90-318c0-256 228-303 435-329 202-27 287-16 287-108 0-139-79-219-234-219-161 0-248 86-283 164l-173-57c86-203 278-265 451-265 150 0 419 46 419 395V0H815v-152h-12C765-73 660 26 471 26zm31-159c199 0 310-134 310-271v-155c-30 35-226 55-295 64-131 17-246 59-246 186 0 116 97 176 231 176zm-23-1131l140-294h201l-194 294H479" id="bB"/><g id="F"><use transform="matrix(0.007595486111111112,0,0,0.007595486111111112,0,0)" xlink:href="#bv"/><use transform="matrix(0.007595486111111112,0,0,0.007595486111111112,8.210720486111112,0)" xlink:href="#aW"/><use transform="matrix(0.007595486111111112,0,0,0.007595486111111112,16.945529513888893,0)" xlink:href="#aX"/><use transform="matrix(0.007595486111111112,0,0,0.007595486111111112,20.712890625000004,0)" xlink:href="#bB"/><use transform="matrix(0.007595486111111112,0,0,0.007595486111111112,29.447699652777782,0)" xlink:href="#ba"/><use transform="matrix(0.007595486111111112,0,0,0.007595486111111112,35.54687500000001,0)" xlink:href="#bj"/><use transform="matrix(0.007595486111111112,0,0,0.007595486111111112,39.31423611111112,0)" xlink:href="#aY"/></g><path d="M678-1118v154H420V0H240v-964H20v-154h220v-149c0-194 155-293 318-293 85 0 141 18 168 30l-50 154c-19-6-47-17-97-17-111 0-159 58-159 166v109h258" id="bC"/><g id="G"><use transform="matrix(0.007595486111111112,0,0,0.007595486111111112,0,0)" xlink:href="#bC"/><use transform="matrix(0.007595486111111112,0,0,0.007595486111111112,5.757378472222223,0)" xlink:href="#aV"/><use transform="matrix(0.007595486111111112,0,0,0.007595486111111112,14.95551215277778,0)" xlink:href="#bx"/><use transform="matrix(0.007595486111111112,0,0,0.007595486111111112,24.146050347222225,0)" xlink:href="#bk"/><use transform="matrix(0.007595486111111112,0,0,0.007595486111111112,33.03276909722223,0)" xlink:href="#bj"/><use transform="matrix(0.007595486111111112,0,0,0.007595486111111112,36.80013020833334,0)" xlink:href="#aY"/><use transform="matrix(0.007595486111111112,0,0,0.007595486111111112,46.127387152777786,0)" xlink:href="#bx"/><use transform="matrix(0.007595486111111112,0,0,0.007595486111111112,55.31792534722223,0)" xlink:href="#bB"/><use transform="matrix(0.007595486111111112,0,0,0.007595486111111112,64.052734375,0)" xlink:href="#ba"/><use transform="matrix(0.007595486111111112,0,0,0.007595486111111112,70.15190972222223,0)" xlink:href="#bj"/><use transform="matrix(0.007595486111111112,0,0,0.007595486111111112,73.91927083333334,0)" xlink:href="#aY"/><use transform="matrix(0.007595486111111112,0,0,0.007595486111111112,83.24652777777779,0)" xlink:href="#bf"/></g><path d="M657 26c-323 0-524-166-541-416h195c15 169 171 246 346 246 202 0 356-106 356-265 5-203-294-238-475-293-239-73-380-191-380-389 0-252 224-419 512-419 294 0 499 171 508 396H992c-17-145-151-228-328-228-193 0-321 102-321 242 0 156 175 211 284 241l149 41c160 44 422 134 422 412 0 244-197 432-541 432" id="bD"/><g id="H"><use transform="matrix(0.007595486111111112,0,0,0.007595486111111112,0,0)" xlink:href="#bD"/><use transform="matrix(0.007595486111111112,0,0,0.007595486111111112,9.980468750000002,0)" xlink:href="#aW"/><use transform="matrix(0.007595486111111112,0,0,0.007595486111111112,18.71527777777778,0)" xlink:href="#aX"/><use transform="matrix(0.007595486111111112,0,0,0.007595486111111112,22.48263888888889,0)" xlink:href="#aW"/><use transform="matrix(0.007595486111111112,0,0,0.007595486111111112,31.21744791666667,0)" xlink:href="#ba"/><use transform="matrix(0.007595486111111112,0,0,0.007595486111111112,37.31662326388889,0)" xlink:href="#bj"/><use transform="matrix(0.007595486111111112,0,0,0.007595486111111112,41.08398437500001,0)" xlink:href="#aY"/></g><path d="M441-652l13-317-268 171-72-126 282-146-282-146 72-128 268 171-13-317h144l-12 317 267-171 72 128-282 146 282 146-72 126-267-171 12 317H441" id="bE"/><use transform="matrix(0.007595486111111112,0,0,0.007595486111111112,0,0)" xlink:href="#bE" id="I"/><path d="M646 20c-332 0-524-278-524-764 0-483 194-766 524-766s524 283 524 766c0 485-191 764-524 764zm0-166c218 0 341-220 341-598 0-380-123-601-341-601s-341 222-341 601c0 378 123 598 341 598" id="bF"/><path d="M128 359l88-567h206L266 359H128" id="bG"/><path d="M626 20c-262 0-458-168-468-396h184c12 133 134 229 284 229 180 0 311-137 311-326 0-192-136-335-323-335-92 0-196 33-255 78l-178-22 88-738h784v167H429l-51 435h8c61-51 160-87 263-87 273 0 474 211 474 499 0 286-210 496-497 496" id="bH"/><g id="J"><use transform="matrix(0.007595486111111112,0,0,0.007595486111111112,0,0)" xlink:href="#bF"/><use transform="matrix(0.007595486111111112,0,0,0.007595486111111112,9.418402777777779,0)" xlink:href="#bG"/><use transform="matrix(0.007595486111111112,0,0,0.007595486111111112,13.899739583333336,0)" xlink:href="#by"/><use transform="matrix(0.007595486111111112,0,0,0.007595486111111112,23.386501736111114,0)" xlink:href="#bH"/></g><g id="K"><use transform="matrix(0.007595486111111112,0,0,0.007595486111111112,0,0)" xlink:href="#bz"/><use transform="matrix(0.007595486111111112,0,0,0.007595486111111112,9.182942708333334,0)" xlink:href="#aQ"/><use transform="matrix(0.007595486111111112,0,0,0.007595486111111112,13.360460069444446,0)" xlink:href="#bA"/></g><path d="M635 20c-292 0-500-160-510-396h192c11 142 145 229 315 229 187 0 323-105 323-260 0-161-125-274-346-274H488v-165h121c174 0 294-100 294-254 0-148-104-245-266-245-152 0-291 85-297 230H157c8-234 222-395 484-395 278 0 448 188 448 400 0 168-95 291-247 336v12c190 31 301 169 301 357 0 244-216 425-508 425" id="bI"/><use transform="matrix(0.007595486111111112,0,0,0.007595486111111112,0,0)" xlink:href="#bI" id="L"/><g id="M"><use transform="matrix(0.010850694444444444,0,0,0.010850694444444444,0,0)" xlink:href="#aU"/><use transform="matrix(0.010850694444444444,0,0,0.010850694444444444,16.9921875,0)" xlink:href="#aV"/><use transform="matrix(0.010850694444444444,0,0,0.010850694444444444,30.13237847222222,0)" xlink:href="#aW"/><use transform="matrix(0.010850694444444444,0,0,0.010850694444444444,42.61067708333333,0)" xlink:href="#aX"/></g><use transform="matrix(0.010850694444444444,0,0,0.010850694444444444,0,0)" xlink:href="#aW" id="N"/><g id="O"><use transform="matrix(0.010850694444444444,0,0,0.010850694444444444,0,0)" xlink:href="#bx"/><use transform="matrix(0.010850694444444444,0,0,0.010850694444444444,13.129340277777777,0)" xlink:href="#aY"/><use transform="matrix(0.010850694444444444,0,0,0.010850694444444444,26.453993055555554,0)" xlink:href="#bq"/><use transform="matrix(0.010850694444444444,0,0,0.010850694444444444,33.83246527777777,0)" xlink:href="#aW"/></g><g id="P"><use transform="matrix(0.010850694444444444,0,0,0.010850694444444444,0,0)" xlink:href="#bl"/><use transform="matrix(0.010850694444444444,0,0,0.010850694444444444,13.606770833333332,0)" xlink:href="#aW"/></g><g id="Q"><use transform="matrix(0.010850694444444444,0,0,0.010850694444444444,0,0)" xlink:href="#bp"/><use transform="matrix(0.010850694444444444,0,0,0.010850694444444444,15.33203125,0)" xlink:href="#bm"/><use transform="matrix(0.010850694444444444,0,0,0.010850694444444444,29.524739583333332,0)" xlink:href="#br"/><use transform="matrix(0.010850694444444444,0,0,0.010850694444444444,38.56336805555556,0)" xlink:href="#bf"/></g><g id="R"><use transform="matrix(0.010850694444444444,0,0,0.010850694444444444,0,0)" xlink:href="#bp"/><use transform="matrix(0.010850694444444444,0,0,0.010850694444444444,15.33203125,0)" xlink:href="#bm"/><use transform="matrix(0.010850694444444444,0,0,0.010850694444444444,29.524739583333332,0)" xlink:href="#by"/><use transform="matrix(0.010850694444444444,0,0,0.010850694444444444,43.07725694444444,0)" xlink:href="#bf"/></g><g id="S"><use transform="matrix(0.010850694444444444,0,0,0.010850694444444444,0,0)" xlink:href="#bp"/><use transform="matrix(0.010850694444444444,0,0,0.010850694444444444,15.33203125,0)" xlink:href="#bm"/><use transform="matrix(0.010850694444444444,0,0,0.010850694444444444,29.524739583333332,0)" xlink:href="#bI"/><use transform="matrix(0.010850694444444444,0,0,0.010850694444444444,43.25086805555556,0)" xlink:href="#bf"/></g><path d="M218-607c0-325 108-727 258-974h175c-155 315-250 682-250 974 0 265 78 531 250 886H476C306-10 218-315 218-607" id="bJ"/><g id="T"><use transform="matrix(0.010850694444444444,0,0,0.010850694444444444,0,0)" xlink:href="#bJ"/><use transform="matrix(0.010850694444444444,0,0,0.010850694444444444,8.10546875,0)" xlink:href="#bJ"/><use transform="matrix(0.010850694444444444,0,0,0.010850694444444444,16.2109375,0)" xlink:href="#bp"/><use transform="matrix(0.010850694444444444,0,0,0.010850694444444444,31.54296875,0)" xlink:href="#bm"/><use transform="matrix(0.010850694444444444,0,0,0.010850694444444444,45.73567708333333,0)" xlink:href="#br"/></g><path d="M593-100v-404H195v-159h398v-403h169v403h398v159H762v404H593" id="bK"/><use transform="matrix(0.010850694444444444,0,0,0.010850694444444444,0,0)" xlink:href="#bK" id="U"/><g id="V"><use transform="matrix(0.010850694444444444,0,0,0.010850694444444444,0,0)" xlink:href="#bp"/><use transform="matrix(0.010850694444444444,0,0,0.010850694444444444,15.33203125,0)" xlink:href="#bm"/><use transform="matrix(0.010850694444444444,0,0,0.010850694444444444,29.524739583333332,0)" xlink:href="#by"/></g><g id="W"><use transform="matrix(0.010850694444444444,0,0,0.010850694444444444,0,0)" xlink:href="#bp"/><use transform="matrix(0.010850694444444444,0,0,0.010850694444444444,15.33203125,0)" xlink:href="#bm"/><use transform="matrix(0.010850694444444444,0,0,0.010850694444444444,29.524739583333332,0)" xlink:href="#bI"/></g><use transform="matrix(0.010850694444444444,0,0,0.010850694444444444,0,0)" xlink:href="#bu" id="X"/><use transform="matrix(0.010850694444444444,0,0,0.010850694444444444,0,0)" xlink:href="#bI" id="Y"/><path d="M96 279C273-86 346-350 346-607c0-292-95-659-250-974h175c150 246 258 650 258 974 0 297-91 602-258 886H96" id="bL"/><g id="Z"><use transform="matrix(0.010850694444444444,0,0,0.010850694444444444,0,0)" xlink:href="#bL"/><use transform="matrix(0.010850694444444444,0,0,0.010850694444444444,8.10546875,0)" xlink:href="#bE"/></g><g id="aa"><use transform="matrix(0.010850694444444444,0,0,0.010850694444444444,0,0)" xlink:href="#bF"/><use transform="matrix(0.010850694444444444,0,0,0.010850694444444444,13.45486111111111,0)" xlink:href="#bG"/><use transform="matrix(0.010850694444444444,0,0,0.010850694444444444,19.25998263888889,0)" xlink:href="#bI"/><use transform="matrix(0.010850694444444444,0,0,0.010850694444444444,32.986111111111114,0)" xlink:href="#bL"/><use transform="matrix(0.010850694444444444,0,0,0.010850694444444444,41.091579861111114,0)" xlink:href="#bL"/></g><g id="ab"><use transform="matrix(0.010850694444444444,0,0,0.010850694444444444,0,0)" xlink:href="#bJ"/><use transform="matrix(0.010850694444444444,0,0,0.010850694444444444,8.10546875,0)" xlink:href="#aR"/><use transform="matrix(0.010850694444444444,0,0,0.010850694444444444,24.84809027777778,0)" xlink:href="#bm"/></g><use transform="matrix(0.010850694444444444,0,0,0.010850694444444444,0,0)" xlink:href="#bE" id="ac"/><path d="M200 0l662-1311v-12H98v-167h963v177L400 0H200" id="bM"/><g id="ad"><use transform="matrix(0.010850694444444444,0,0,0.010850694444444444,0,0)" xlink:href="#bF"/><use transform="matrix(0.010850694444444444,0,0,0.010850694444444444,13.45486111111111,0)" xlink:href="#bG"/><use transform="matrix(0.010850694444444444,0,0,0.010850694444444444,19.542100694444443,0)" xlink:href="#bM"/><use transform="matrix(0.010850694444444444,0,0,0.010850694444444444,32.11805555555556,0)" xlink:href="#bL"/></g><path d="M226-283v-166h904v166H226zm0-434v-166h904v166H226" id="bN"/><use transform="matrix(0.010850694444444444,0,0,0.010850694444444444,0,0)" xlink:href="#bN" id="ae"/><g id="af"><use transform="matrix(0.010850694444444444,0,0,0.010850694444444444,0,0)" xlink:href="#bp"/><use transform="matrix(0.010850694444444444,0,0,0.010850694444444444,13.81293402777778,0)" xlink:href="#bt"/><use transform="matrix(0.010850694444444444,0,0,0.010850694444444444,29.144965277777775,0)" xlink:href="#br"/></g><g id="ag"><use transform="matrix(0.010850694444444444,0,0,0.010850694444444444,0,0)" xlink:href="#aR"/><use transform="matrix(0.010850694444444444,0,0,0.010850694444444444,16.74262152777778,0)" xlink:href="#bm"/><use transform="matrix(0.010850694444444444,0,0,0.010850694444444444,30.93532986111111,0)" xlink:href="#bf"/></g><g id="ah"><use transform="matrix(0.010850694444444444,0,0,0.010850694444444444,0,0)" xlink:href="#aU"/><use transform="matrix(0.010850694444444444,0,0,0.010850694444444444,16.9921875,0)" xlink:href="#aV"/><use transform="matrix(0.010850694444444444,0,0,0.010850694444444444,30.13237847222222,0)" xlink:href="#aW"/><use transform="matrix(0.010850694444444444,0,0,0.010850694444444444,42.61067708333333,0)" xlink:href="#aX"/></g><use transform="matrix(0.010850694444444444,0,0,0.010850694444444444,0,0)" xlink:href="#aW" id="ai"/><g id="aj"><use transform="matrix(0.010850694444444444,0,0,0.010850694444444444,0,0)" xlink:href="#aR"/><use transform="matrix(0.010850694444444444,0,0,0.010850694444444444,16.74262152777778,0)" xlink:href="#bm"/><use transform="matrix(0.010850694444444444,0,0,0.010850694444444444,30.93532986111111,0)" xlink:href="#bf"/></g><g id="ak"><use transform="matrix(0.010850694444444444,0,0,0.010850694444444444,0,0)" xlink:href="#bJ"/><use transform="matrix(0.010850694444444444,0,0,0.010850694444444444,8.10546875,0)" xlink:href="#bJ"/><use transform="matrix(0.010850694444444444,0,0,0.010850694444444444,16.2109375,0)" xlink:href="#bp"/><use transform="matrix(0.010850694444444444,0,0,0.010850694444444444,31.54296875,0)" xlink:href="#bm"/><use transform="matrix(0.010850694444444444,0,0,0.010850694444444444,45.73567708333333,0)" xlink:href="#br"/></g><use transform="matrix(0.010850694444444444,0,0,0.010850694444444444,0,0)" xlink:href="#bK" id="al"/><g id="am"><use transform="matrix(0.010850694444444444,0,0,0.010850694444444444,0,0)" xlink:href="#bp"/><use transform="matrix(0.010850694444444444,0,0,0.010850694444444444,15.33203125,0)" xlink:href="#bm"/><use transform="matrix(0.010850694444444444,0,0,0.010850694444444444,29.524739583333332,0)" xlink:href="#by"/></g><use transform="matrix(0.010850694444444444,0,0,0.010850694444444444,0,0)" xlink:href="#bK" id="an"/><g id="ao"><use transform="matrix(0.010850694444444444,0,0,0.010850694444444444,0,0)" xlink:href="#bp"/><use transform="matrix(0.010850694444444444,0,0,0.010850694444444444,15.33203125,0)" xlink:href="#bm"/><use transform="matrix(0.010850694444444444,0,0,0.010850694444444444,29.524739583333332,0)" xlink:href="#bI"/></g><use transform="matrix(0.010850694444444444,0,0,0.010850694444444444,0,0)" xlink:href="#bu" id="ap"/><g id="aq"><use transform="matrix(0.010850694444444444,0,0,0.010850694444444444,0,0)" xlink:href="#bI"/><use transform="matrix(0.010850694444444444,0,0,0.010850694444444444,13.726128472222221,0)" xlink:href="#bL"/></g><use transform="matrix(0.010850694444444444,0,0,0.010850694444444444,0,0)" xlink:href="#bE" id="ar"/><g id="as"><use transform="matrix(0.010850694444444444,0,0,0.010850694444444444,0,0)" xlink:href="#bF"/><use transform="matrix(0.010850694444444444,0,0,0.010850694444444444,13.45486111111111,0)" xlink:href="#bG"/><use transform="matrix(0.010850694444444444,0,0,0.010850694444444444,19.25998263888889,0)" xlink:href="#bI"/><use transform="matrix(0.010850694444444444,0,0,0.010850694444444444,32.986111111111114,0)" xlink:href="#bL"/><use transform="matrix(0.010850694444444444,0,0,0.010850694444444444,41.091579861111114,0)" xlink:href="#bL"/></g><g id="at"><use transform="matrix(0.010850694444444444,0,0,0.010850694444444444,0,0)" xlink:href="#bJ"/><use transform="matrix(0.010850694444444444,0,0,0.010850694444444444,8.10546875,0)" xlink:href="#aR"/><use transform="matrix(0.010850694444444444,0,0,0.010850694444444444,24.84809027777778,0)" xlink:href="#bm"/></g><g id="au"><use transform="matrix(0.010850694444444444,0,0,0.010850694444444444,0,0)" xlink:href="#bF"/><use transform="matrix(0.010850694444444444,0,0,0.010850694444444444,13.585069444444445,0)" xlink:href="#bM"/><use transform="matrix(0.010850694444444444,0,0,0.010850694444444444,26.161024305555554,0)" xlink:href="#bL"/></g><use transform="matrix(0.010850694444444444,0,0,0.010850694444444444,0,0)" xlink:href="#bN" id="av"/><g id="aw"><use transform="matrix(0.010850694444444444,0,0,0.010850694444444444,0,0)" xlink:href="#bp"/><use transform="matrix(0.010850694444444444,0,0,0.010850694444444444,13.81293402777778,0)" xlink:href="#bt"/><use transform="matrix(0.010850694444444444,0,0,0.010850694444444444,29.144965277777775,0)" xlink:href="#by"/></g><g id="ax"><use transform="matrix(0.010850694444444444,0,0,0.010850694444444444,0,0)" xlink:href="#aQ"/><use transform="matrix(0.010850694444444444,0,0,0.010850694444444444,5.967881944444445,0)" xlink:href="#bx"/><use transform="matrix(0.010850694444444444,0,0,0.010850694444444444,19.09722222222222,0)" xlink:href="#bv"/><use transform="matrix(0.010850694444444444,0,0,0.010850694444444444,30.826822916666664,0)" xlink:href="#bj"/><use transform="matrix(0.010850694444444444,0,0,0.010850694444444444,36.20876736111111,0)" xlink:href="#ba"/><use transform="matrix(0.010850694444444444,0,0,0.010850694444444444,44.57465277777778,0)" xlink:href="#aW"/></g><g id="ay"><use transform="matrix(0.010850694444444444,0,0,0.010850694444444444,0,0)" xlink:href="#aW"/><use transform="matrix(0.010850694444444444,0,0,0.010850694444444444,12.47829861111111,0)" xlink:href="#bv"/></g><g id="az"><use transform="matrix(0.010850694444444444,0,0,0.010850694444444444,0,0)" xlink:href="#bx"/><use transform="matrix(0.010850694444444444,0,0,0.010850694444444444,13.129340277777777,0)" xlink:href="#aY"/><use transform="matrix(0.010850694444444444,0,0,0.010850694444444444,26.453993055555554,0)" xlink:href="#bq"/><use transform="matrix(0.010850694444444444,0,0,0.010850694444444444,33.83246527777777,0)" xlink:href="#aW"/><use transform="matrix(0.010850694444444444,0,0,0.010850694444444444,46.310763888888886,0)" xlink:href="#bv"/></g><g id="aA"><use transform="matrix(0.010850694444444444,0,0,0.010850694444444444,0,0)" xlink:href="#bw"/><use transform="matrix(0.010850694444444444,0,0,0.010850694444444444,13.823784722222221,0)" xlink:href="#aW"/><use transform="matrix(0.010850694444444444,0,0,0.010850694444444444,26.302083333333332,0)" xlink:href="#ba"/><use transform="matrix(0.010850694444444444,0,0,0.010850694444444444,34.66796875,0)" xlink:href="#aW"/></g><g id="aB"><use transform="matrix(0.010850694444444444,0,0,0.010850694444444444,0,0)" xlink:href="#bp"/><use transform="matrix(0.010850694444444444,0,0,0.010850694444444444,13.81293402777778,0)" xlink:href="#bt"/><use transform="matrix(0.010850694444444444,0,0,0.010850694444444444,29.144965277777775,0)" xlink:href="#aQ"/></g><g id="aC"><use transform="matrix(0.010850694444444444,0,0,0.010850694444444444,0,0)" xlink:href="#bp"/><use transform="matrix(0.010850694444444444,0,0,0.010850694444444444,13.81293402777778,0)" xlink:href="#bt"/><use transform="matrix(0.010850694444444444,0,0,0.010850694444444444,29.144965277777775,0)" xlink:href="#by"/></g><g id="aD"><use transform="matrix(0.010850694444444444,0,0,0.010850694444444444,0,0)" xlink:href="#aR"/><use transform="matrix(0.010850694444444444,0,0,0.010850694444444444,16.74262152777778,0)" xlink:href="#bz"/></g><g id="aE"><use transform="matrix(0.010850694444444444,0,0,0.010850694444444444,0,0)" xlink:href="#bp"/><use transform="matrix(0.010850694444444444,0,0,0.010850694444444444,13.81293402777778,0)" xlink:href="#bt"/><use transform="matrix(0.010850694444444444,0,0,0.010850694444444444,29.144965277777775,0)" xlink:href="#br"/></g><g id="aF"><use transform="matrix(0.010850694444444444,0,0,0.010850694444444444,0,0)" xlink:href="#bp"/><use transform="matrix(0.010850694444444444,0,0,0.010850694444444444,13.81293402777778,0)" xlink:href="#bt"/><use transform="matrix(0.010850694444444444,0,0,0.010850694444444444,29.144965277777775,0)" xlink:href="#by"/></g><use transform="matrix(0.010850694444444444,0,0,0.010850694444444444,0,0)" xlink:href="#by" id="aG"/><g id="aH"><use transform="matrix(0.010850694444444444,0,0,0.010850694444444444,0,0)" xlink:href="#bD"/><use transform="matrix(0.010850694444444444,0,0,0.010850694444444444,14.2578125,0)" xlink:href="#aV"/><use transform="matrix(0.010850694444444444,0,0,0.010850694444444444,27.39800347222222,0)" xlink:href="#aW"/></g><g id="aI"><use transform="matrix(0.010850694444444444,0,0,0.010850694444444444,0,0)" xlink:href="#bx"/><use transform="matrix(0.010850694444444444,0,0,0.010850694444444444,13.129340277777777,0)" xlink:href="#aY"/><use transform="matrix(0.010850694444444444,0,0,0.010850694444444444,26.453993055555554,0)" xlink:href="#bq"/><use transform="matrix(0.010850694444444444,0,0,0.010850694444444444,33.83246527777777,0)" xlink:href="#aW"/></g><g id="aJ"><use transform="matrix(0.010850694444444444,0,0,0.010850694444444444,0,0)" xlink:href="#bC"/><use transform="matrix(0.010850694444444444,0,0,0.010850694444444444,8.22482638888889,0)" xlink:href="#bj"/><use transform="matrix(0.010850694444444444,0,0,0.010850694444444444,13.606770833333332,0)" xlink:href="#bx"/><use transform="matrix(0.010850694444444444,0,0,0.010850694444444444,26.73611111111111,0)" xlink:href="#aW"/><use transform="matrix(0.010850694444444444,0,0,0.010850694444444444,39.21440972222222,0)" xlink:href="#aX"/></g><path d="M628 24c-324 0-524-230-524-574 0-343 198-582 503-582 237 0 487 146 487 559v75H286c9 234 145 362 343 362 132 0 231-58 273-172l174 48C1024-91 857 24 628 24zM287-650h624c-17-190-120-322-304-322-192 0-309 151-320 322zm237-614l140-294h201l-194 294H524" id="bO"/><path d="M295 13c-75 0-135-60-135-135s60-135 135-135 135 60 135 135S370 13 295 13zm0-809c-75 0-135-60-135-135s60-135 135-135 135 60 135 135-60 135-135 135" id="bP"/><g id="aK"><use transform="matrix(0.010850694444444444,0,0,0.010850694444444444,0,0)" xlink:href="#bO"/><use transform="matrix(0.010850694444444444,0,0,0.010850694444444444,12.955729166666666,0)" xlink:href="#bP"/></g><g id="aL"><use transform="matrix(0.010850694444444444,0,0,0.010850694444444444,0,0)" xlink:href="#ba"/><use transform="matrix(0.010850694444444444,0,0,0.010850694444444444,7.996961805555555,0)" xlink:href="#bb"/><use transform="matrix(0.010850694444444444,0,0,0.010850694444444444,20.95269097222222,0)" xlink:href="#bv"/><use transform="matrix(0.010850694444444444,0,0,0.010850694444444444,32.682291666666664,0)" xlink:href="#aV"/><use transform="matrix(0.010850694444444444,0,0,0.010850694444444444,45.822482638888886,0)" xlink:href="#aX"/><use transform="matrix(0.010850694444444444,0,0,0.010850694444444444,51.529947916666664,0)" xlink:href="#bq"/><use transform="matrix(0.010850694444444444,0,0,0.010850694444444444,58.908420138888886,0)" xlink:href="#aW"/><use transform="matrix(0.010850694444444444,0,0,0.010850694444444444,71.38671875,0)" xlink:href="#bl"/><use transform="matrix(0.010850694444444444,0,0,0.010850694444444444,84.99348958333333,0)" xlink:href="#aY"/></g><g id="aM"><use transform="matrix(0.010850694444444444,0,0,0.010850694444444444,0,0)" xlink:href="#bl"/><use transform="matrix(0.010850694444444444,0,0,0.010850694444444444,13.606770833333332,0)" xlink:href="#aY"/></g><g id="aN"><use transform="matrix(0.010850694444444444,0,0,0.010850694444444444,0,0)" xlink:href="#bw"/><use transform="matrix(0.010850694444444444,0,0,0.010850694444444444,13.606770833333332,0)" xlink:href="#ba"/><use transform="matrix(0.010850694444444444,0,0,0.010850694444444444,21.603732638888886,0)" xlink:href="#aY"/><use transform="matrix(0.010850694444444444,0,0,0.010850694444444444,34.928385416666664,0)" xlink:href="#bk"/><use transform="matrix(0.010850694444444444,0,0,0.010850694444444444,47.623697916666664,0)" xlink:href="#bb"/><use transform="matrix(0.010850694444444444,0,0,0.010850694444444444,60.57942708333333,0)" xlink:href="#bv"/><use transform="matrix(0.010850694444444444,0,0,0.010850694444444444,72.30902777777777,0)" xlink:href="#bv"/><use transform="matrix(0.010850694444444444,0,0,0.010850694444444444,84.03862847222221,0)" xlink:href="#aY"/></g><g id="aO"><use transform="matrix(0.010850694444444444,0,0,0.010850694444444444,0,0)" xlink:href="#aW"/><use transform="matrix(0.010850694444444444,0,0,0.010850694444444444,12.47829861111111,0)" xlink:href="#bx"/><use transform="matrix(0.010850694444444444,0,0,0.010850694444444444,25.60763888888889,0)" xlink:href="#bq"/><use transform="matrix(0.010850694444444444,0,0,0.010850694444444444,32.66059027777777,0)" xlink:href="#bb"/><use transform="matrix(0.010850694444444444,0,0,0.010850694444444444,45.616319444444436,0)" xlink:href="#ba"/><use transform="matrix(0.010850694444444444,0,0,0.010850694444444444,54.32942708333332,0)" xlink:href="#bj"/><use transform="matrix(0.010850694444444444,0,0,0.010850694444444444,59.711371527777764,0)" xlink:href="#aY"/><use transform="matrix(0.010850694444444444,0,0,0.010850694444444444,73.03602430555554,0)" xlink:href="#ba"/></g><g id="aP"><use transform="matrix(0.010850694444444444,0,0,0.010850694444444444,0,0)" xlink:href="#bz"/><use transform="matrix(0.010850694444444444,0,0,0.010850694444444444,13.118489583333332,0)" xlink:href="#aQ"/><use transform="matrix(0.010850694444444444,0,0,0.010850694444444444,19.08637152777778,0)" xlink:href="#bA"/></g></defs></g></svg>